<svg width="222" height="65" viewBox="0 0 222 65" fill="none" xmlns="http://www.w3.org/2000/svg">
<rect x="5" width="217" height="65" fill="#FFA600"/>
<path d="M38.6013 16.08C37.8279 17.28 36.8546 18.56 35.6813 19.92C34.5346 21.28 33.2546 22.5867 31.8413 23.84C30.4279 25.0933 28.9746 26.2 27.4813 27.16C27.1879 26.5467 26.7879 25.8533 26.2813 25.08C25.8013 24.28 25.3346 23.6267 24.8813 23.12C26.4279 22.2133 27.9213 21.0933 29.3613 19.76C30.8279 18.4267 32.1479 17.04 33.3213 15.6C34.5213 14.16 35.4813 12.8 36.2013 11.52H40.6813C41.7213 12.9867 42.8813 14.44 44.1613 15.88C45.4679 17.2933 46.8413 18.6 48.2813 19.8C49.7479 21 51.2146 21.9867 52.6813 22.76C52.1746 23.3467 51.6679 24.04 51.1613 24.84C50.6813 25.6133 50.2546 26.36 49.8813 27.08C48.4946 26.1733 47.0946 25.0933 45.6813 23.84C44.2679 22.5867 42.9346 21.28 41.6813 19.92C40.4546 18.56 39.4279 17.28 38.6013 16.08ZM30.9213 23.16H46.6013V27.28H30.9213V23.16ZM27.2013 30.92H50.5613V35.12H27.2013V30.92ZM29.7213 36.28L34.0813 37.4C33.4946 39.0533 32.7613 40.7067 31.8813 42.36C31.0013 44.0133 30.1213 45.3867 29.2413 46.48C28.9213 46.24 28.5213 45.9733 28.0413 45.68C27.5879 45.3867 27.1079 45.1067 26.6013 44.84C26.1213 44.5733 25.7079 44.36 25.3613 44.2C26.2413 43.2133 27.0679 42.0133 27.8413 40.6C28.6413 39.16 29.2679 37.72 29.7213 36.28ZM43.1213 38L46.9213 36.16C47.6146 36.96 48.2813 37.8267 48.9213 38.76C49.5879 39.6933 50.1879 40.6133 50.7213 41.52C51.2546 42.4267 51.6813 43.2533 52.0013 44L47.9613 46.12C47.6946 45.3733 47.2946 44.5333 46.7613 43.6C46.2546 42.64 45.6813 41.68 45.0413 40.72C44.4279 39.7333 43.7879 38.8267 43.1213 38ZM36.4413 24.12H41.1613V43.64C41.1613 44.7067 41.0413 45.56 40.8013 46.2C40.5613 46.8667 40.0946 47.3867 39.4013 47.76C38.7079 48.1067 37.8813 48.3333 36.9213 48.44C35.9879 48.5467 34.8679 48.6 33.5613 48.6C33.4813 47.96 33.2813 47.2133 32.9613 46.36C32.6679 45.5067 32.3613 44.7733 32.0413 44.16C32.8413 44.1867 33.5879 44.2133 34.2813 44.24C35.0013 44.24 35.4946 44.2267 35.7613 44.2C36.0279 44.2 36.2013 44.16 36.2813 44.08C36.3879 43.9733 36.4413 43.8 36.4413 43.56V24.12ZM22.8813 19.64L27.0813 21.2C26.2279 22.8 25.2146 24.4133 24.0413 26.04C22.8946 27.6667 21.6679 29.2 20.3613 30.64C19.0546 32.08 17.7479 33.3333 16.4413 34.4C16.3079 34.0533 16.0813 33.6 15.7613 33.04C15.4679 32.48 15.1479 31.92 14.8013 31.36C14.4813 30.7733 14.1879 30.3067 13.9213 29.96C15.0413 29.1067 16.1479 28.1333 17.2413 27.04C18.3613 25.9467 19.4013 24.7733 20.3613 23.52C21.3479 22.24 22.1879 20.9467 22.8813 19.64ZM22.1613 11L26.4013 12.72C25.5746 13.8667 24.6146 15.04 23.5213 16.24C22.4546 17.44 21.3479 18.5867 20.2013 19.68C19.0546 20.7733 17.9213 21.72 16.8013 22.52C16.5879 22.2 16.3213 21.8267 16.0013 21.4C15.7079 20.9733 15.4013 20.5467 15.0813 20.12C14.7879 19.6667 14.5213 19.3067 14.2813 19.04C15.2413 18.3467 16.2146 17.5467 17.2013 16.64C18.2146 15.7333 19.1479 14.7867 20.0013 13.8C20.8813 12.8133 21.6013 11.88 22.1613 11ZM19.5613 28.28L23.6413 24.2L24.0413 24.36V48.64H19.5613V28.28ZM62.3213 11.68H67.0813V24.44C67.0813 26.52 66.9879 28.64 66.8013 30.8C66.6146 32.96 66.2279 35.0933 65.6413 37.2C65.0813 39.3067 64.2279 41.32 63.0813 43.24C61.9346 45.16 60.4013 46.9333 58.4813 48.56C58.2413 48.16 57.9079 47.72 57.4813 47.24C57.0813 46.76 56.6546 46.2933 56.2013 45.84C55.7746 45.4133 55.3746 45.0667 55.0013 44.8C56.6546 43.4133 57.9613 41.9067 58.9213 40.28C59.9079 38.6533 60.6413 36.9467 61.1213 35.16C61.6013 33.3733 61.9213 31.5733 62.0813 29.76C62.2413 27.92 62.3213 26.1333 62.3213 24.4V11.68ZM73.4812 12.56H78.2013V45.92H73.4812V12.56ZM85.0013 11.56H89.8013V48.16H85.0013V11.56ZM57.1213 20.8L61.2413 21.88C61.0546 23.2133 60.8279 24.6 60.5613 26.04C60.2946 27.48 59.9613 28.8667 59.5613 30.2C59.1879 31.5067 58.7346 32.6533 58.2013 33.64L54.0413 31.96C54.5746 30.9733 55.0413 29.8667 55.4413 28.64C55.8413 27.4133 56.1746 26.1333 56.4413 24.8C56.7346 23.44 56.9613 22.1067 57.1213 20.8ZM66.4413 23.16L70.2013 21.52C70.6813 22.64 71.1346 23.8267 71.5613 25.08C71.9879 26.3067 72.3613 27.5067 72.6813 28.68C73.0279 29.8267 73.2679 30.8533 73.4013 31.76L69.3213 33.64C69.2413 32.7333 69.0546 31.68 68.7613 30.48C68.4679 29.28 68.1213 28.04 67.7213 26.76C67.3213 25.48 66.8946 24.28 66.4413 23.16ZM77.5213 23.08L81.1213 21.24C81.7079 22.28 82.2813 23.4 82.8413 24.6C83.4013 25.8 83.8946 26.9733 84.3213 28.12C84.7746 29.24 85.0946 30.24 85.2813 31.12L81.4013 33.28C81.2413 32.3733 80.9479 31.3333 80.5213 30.16C80.1213 28.9867 79.6679 27.7867 79.1613 26.56C78.6546 25.3333 78.1079 24.1733 77.5213 23.08ZM95.0813 24.2H131.521V28.64H95.0813V24.2ZM98.7213 15.84H121.361V20.24H98.7213V15.84ZM107.801 11H112.801V26.64H107.801V11ZM123.201 31.28L127.161 34.76C125.348 35.48 123.375 36.1733 121.241 36.84C119.108 37.48 116.935 38.08 114.721 38.64C112.535 39.1733 110.401 39.6533 108.321 40.08C108.215 39.5733 108.001 38.96 107.681 38.24C107.388 37.52 107.108 36.92 106.841 36.44C108.815 36.0133 110.801 35.52 112.801 34.96C114.828 34.4 116.735 33.8 118.521 33.16C120.335 32.52 121.895 31.8933 123.201 31.28ZM125.641 12.56L130.121 14.76C127.508 18.6 124.468 22.1333 121.001 25.36C117.561 28.56 113.828 31.4133 109.801 33.92C105.801 36.4 101.641 38.5333 97.3213 40.32C97.1079 39.9467 96.7879 39.5067 96.3613 39C95.9613 38.4933 95.5479 37.9867 95.1213 37.48C94.7213 36.9733 94.3479 36.5467 94.0013 36.2C98.3479 34.6533 102.481 32.72 106.401 30.4C110.348 28.08 113.961 25.4267 117.241 22.44C120.521 19.4267 123.321 16.1333 125.641 12.56ZM105.281 31.32H110.281V41.88C110.281 42.4133 110.361 42.8133 110.521 43.08C110.681 43.32 111.001 43.48 111.481 43.56C111.988 43.64 112.721 43.68 113.681 43.68C113.975 43.68 114.388 43.68 114.921 43.68C115.481 43.68 116.121 43.68 116.841 43.68C117.561 43.68 118.281 43.68 119.001 43.68C119.721 43.68 120.375 43.68 120.961 43.68C121.575 43.68 122.055 43.68 122.401 43.68C123.228 43.68 123.855 43.56 124.281 43.32C124.708 43.08 125.015 42.6133 125.201 41.92C125.388 41.2 125.521 40.1333 125.601 38.72C126.001 38.9867 126.468 39.24 127.001 39.48C127.535 39.6933 128.081 39.8933 128.641 40.08C129.201 40.2667 129.695 40.4 130.121 40.48C129.908 42.4533 129.548 43.9867 129.041 45.08C128.561 46.1733 127.828 46.9333 126.841 47.36C125.855 47.7867 124.481 48 122.721 48C122.455 48 122.001 48 121.361 48C120.748 48 120.028 48 119.201 48C118.401 48 117.601 48 116.801 48C116.028 48 115.321 48 114.681 48C114.041 48 113.588 48 113.321 48C111.241 48 109.615 47.8133 108.441 47.44C107.268 47.0933 106.441 46.48 105.961 45.6C105.508 44.72 105.281 43.4933 105.281 41.92V31.32ZM148.921 26.56H171.881V31.12H148.921V26.56ZM150.201 17.04H170.641V21.6H150.201V17.04ZM157.521 11.36H162.361V48.48H157.521V11.36ZM157.081 29.36L160.841 30.52C160.041 32.68 159.055 34.76 157.881 36.76C156.708 38.7333 155.388 40.52 153.921 42.12C152.455 43.6933 150.868 45.0267 149.161 46.12C148.921 45.7467 148.615 45.3333 148.241 44.88C147.868 44.4 147.468 43.9333 147.041 43.48C146.641 43.0267 146.268 42.64 145.921 42.32C147.521 41.4667 149.041 40.36 150.481 39C151.921 37.64 153.201 36.1333 154.321 34.48C155.468 32.8267 156.388 31.12 157.081 29.36ZM162.761 29.24C163.428 30.8933 164.255 32.5467 165.241 34.2C166.255 35.8267 167.375 37.3333 168.601 38.72C169.828 40.1067 171.095 41.28 172.401 42.24C172.055 42.5333 171.655 42.92 171.201 43.4C170.748 43.8533 170.308 44.3333 169.881 44.84C169.481 45.32 169.135 45.7733 168.841 46.2C167.508 45 166.241 43.56 165.041 41.88C163.841 40.2 162.748 38.3733 161.761 36.4C160.775 34.4267 159.921 32.4133 159.201 30.36L162.761 29.24ZM138.241 14.48H147.841V38.52H138.241V33.84H143.521V19.12H138.241V14.48ZM135.761 14.48H140.161V41.72H135.761V14.48ZM175.481 13.44H211.201V17.64H175.481V13.44ZM184.241 11H189.121V20.04H184.241V11ZM197.561 11H202.441V19.52H197.561V11ZM175.481 34.04H211.201V38.24H175.481V34.04ZM190.721 31.32H195.721V48.6H190.721V31.32ZM189.401 35.96L193.321 37.68C192.095 39.1733 190.628 40.56 188.921 41.84C187.215 43.12 185.388 44.2533 183.441 45.24C181.495 46.2533 179.521 47.08 177.521 47.72C177.281 47.2933 176.975 46.8133 176.601 46.28C176.228 45.7733 175.828 45.28 175.401 44.8C175.001 44.2933 174.615 43.8667 174.241 43.52C175.708 43.1733 177.161 42.7467 178.601 42.24C180.068 41.7067 181.468 41.1067 182.801 40.44C184.161 39.7733 185.401 39.0667 186.521 38.32C187.641 37.5467 188.601 36.76 189.401 35.96ZM197.041 36.28C198.081 37.3733 199.401 38.3867 201.001 39.32C202.628 40.2533 204.388 41.08 206.281 41.8C208.201 42.4933 210.135 43.04 212.081 43.44C211.708 43.7867 211.321 44.2133 210.921 44.72C210.521 45.2 210.135 45.6933 209.761 46.2C209.415 46.7333 209.108 47.2133 208.841 47.64C206.868 47.08 204.921 46.3067 203.001 45.32C201.081 44.36 199.308 43.24 197.681 41.96C196.055 40.68 194.641 39.2933 193.441 37.8L197.041 36.28ZM205.521 18.88L209.361 22.6C207.148 23.1067 204.748 23.5467 202.161 23.92C199.575 24.2667 196.881 24.5467 194.081 24.76C191.281 24.9733 188.481 25.1333 185.681 25.24C182.881 25.3467 180.161 25.4 177.521 25.4C177.468 24.84 177.335 24.1467 177.121 23.32C176.908 22.4933 176.681 21.8267 176.441 21.32C179.028 21.2667 181.668 21.1867 184.361 21.08C187.081 20.9733 189.735 20.8133 192.321 20.6C194.908 20.3867 197.321 20.1467 199.561 19.88C201.828 19.5867 203.815 19.2533 205.521 18.88ZM178.201 27.28L182.201 25.68C182.921 26.5333 183.601 27.4933 184.241 28.56C184.908 29.6267 185.375 30.5733 185.641 31.4L181.401 33.12C181.161 32.32 180.735 31.3733 180.121 30.28C179.508 29.1867 178.868 28.1867 178.201 27.28ZM189.361 26.4L193.521 25.04C194.028 25.8133 194.508 26.68 194.961 27.64C195.415 28.5733 195.708 29.4 195.841 30.12L191.401 31.6C191.295 30.9067 191.041 30.0667 190.641 29.08C190.268 28.0933 189.841 27.2 189.361 26.4ZM204.441 24.08L209.401 25.8C208.548 27.1333 207.668 28.4533 206.761 29.76C205.855 31.0667 205.041 32.16 204.321 33.04L200.521 31.48C200.975 30.8133 201.441 30.0533 201.921 29.2C202.428 28.32 202.895 27.44 203.321 26.56C203.775 25.6533 204.148 24.8267 204.441 24.08Z" fill="#FF0000"/>
</svg>
